:version 1.10
:name ASF
:units
  mass 1
  length 1
  angle deg
:documentation
  ASF file generated by Kaydara
:root
  axis xyz
  order  tx ty tz rx ry rz
  position 0 0 0
  orientation 0 0 0
:bonedata
  begin
    id 1
    name LeftUpLegDummy
    direction 1 -2.30186e-007 -8.31532e-007
    length 2.93387
    axis 0 0 0 xyz
  end
  begin
    id 2
    name LeftUpLeg
    direction -1.82929e-007 -1 -1.48925e-009
    length 17.3336
    axis -3.48766 0.00143442 -0.000521554 xyz
    dof rx ry rz
  end
  begin
    id 3
    name LeftLeg
    direction -1.82929e-007 -1 -5.23717e-011
    length 14.9995
    axis 3.68178 -0.00654042 -0.000282425 xyz
    dof rx ry rz
  end
  begin
    id 4
    name LeftFoot
    direction 8.31532e-007 -4.54534e-011 1
    length 6.74421
    axis 1.87234e-006 4.66016e-005 -5.96866e-006 xyz
    dof rx ry rz
  end
  begin
    id 5
    name LeftToes
    direction 0.00818058 -0.00485161 0.999955
    length 3.85048
    axis 1.06247e-005 4.65869e-005 -5.96999e-006 xyz
    dof rx ry rz
  end
  begin
    id 6
    name SpineDummy
    direction -5.8607e-008 0.943407 -0.331637
    length 5.93572
    axis 0 0 0 xyz
  end
  begin
    id 7
    name Spine
    direction -1.04988e-007 0.999988 0.00495137
    length 10.1015
    axis -0.001389 0.000121417 6.61666e-006 xyz
    dof rx ry rz
  end
  begin
    id 8
    name Spine1
    direction 0 0 0
    length 0
    axis -0.001389 0.00012144 6.56766e-006 xyz
    dof rx ry rz
  end
  begin
    id 9
    name RightShoulderDummy
    direction -0.98348 0.17941 -0.0240696
    length 3.59882
    axis -0.001389 0.00012144 6.56766e-006 xyz
  end
  begin
    id 10
    name RightShoulder
    direction -0.978693 0.204882 0.0135597
    length 2.70001
    axis 0.215806 0.000203631 -0.00679732 xyz
    dof rx ry rz
  end
  begin
    id 11
    name RightArm
    direction -1 3.85509e-006 8.31394e-007
    length 10.2459
    axis -23.2009 -0.134239 -0.964098 xyz
    dof rx ry rz
  end
  begin
    id 12
    name RightForeArm
    direction -1 3.85569e-006 8.3129e-007
    length 8.16799
    axis -9.92322 0.0658061 0.17887 xyz
    dof rx ry rz
  end
  begin
    id 13
    name RightHand
    direction -0.992843 -0.0414604 0.112003
    length 5.28593
    axis -0.00960638 0.00330669 -0.185225 xyz
    dof rx ry rz
  end
  begin
    id 14
    name LeftShoulder1Dummy
    direction 0.983523 0.179172 -0.0240748
    length 3.59866
    axis -0.001389 0.00012144 6.56766e-006 xyz
  end
  begin
    id 15
    name LeftShoulder1
    direction 0.978627 0.205195 0.0135605
    length 2.70019
    axis -0.001389 0.00012144 6.57583e-006 xyz
    dof rx ry rz
  end
  begin
    id 16
    name LeftArm
    direction 1 3.51895e-006 -8.60188e-007
    length 10.2459
    axis -23.1894 0.134785 0.967513 xyz
    dof rx ry rz
  end
  begin
    id 17
    name LeftForeArm
    direction 1 3.51921e-006 -7.32029e-007
    length 8.16799
    axis -9.91835 -0.0656957 -0.177789 xyz
    dof rx ry rz
  end
  begin
    id 18
    name LeftHand
    direction 0.992938 -0.0411636 0.11126
    length 5.32135
    axis -0.00960237 -0.00340661 0.185177 xyz
    dof rx ry rz
  end
  begin
    id 19
    name HEadDummy
    direction 1.01974e-006 0.999861 -0.016675
    length 2.99946
    axis -0.001389 0.00012144 6.56766e-006 xyz
  end
  begin
    id 20
    name HEad
    direction -0.0222689 0.980941 0.193023
    length 5.12695
    axis -0.001389 0.00012144 6.56766e-006 xyz
    dof rx ry rz
  end
  begin
    id 21
    name RightUpLegDummy
    direction -1 2.30186e-007 8.31532e-007
    length 2.93387
    axis 0 0 0 xyz
  end
  begin
    id 22
    name RightUpLeg
    direction -1.82966e-007 -1 1.56832e-007
    length 17.3336
    axis -3.4909 -0.000906625 0.00028951 xyz
    dof rx ry rz
  end
  begin
    id 23
    name RightLeg
    direction -1.82786e-007 -1 -1.80317e-007
    length 14.9995
    axis 3.68513 0.0193739 -0.131021 xyz
    dof rx ry rz
  end
  begin
    id 24
    name RightFoot
    direction 8.31721e-007 -4.63324e-011 1
    length 6.74421
    axis 4.81691e-005 -0.120479 -0.188785 xyz
    dof rx ry rz
  end
  begin
    id 25
    name RightToes
    direction 0.00124746 -0.014064 0.9999
    length 3.85082
    axis 0.000481921 0.542163 -0.142575 xyz
    dof rx ry rz
  end
:hierarchy
  begin
    root LeftUpLegDummy SpineDummy RightUpLegDummy
    LeftUpLegDummy LeftUpLeg
    LeftUpLeg LeftLeg
    LeftLeg LeftFoot
    LeftFoot LeftToes
    SpineDummy Spine
    Spine Spine1
    Spine1 RightShoulderDummy LeftShoulder1Dummy HEadDummy
    RightShoulderDummy RightShoulder
    RightShoulder RightArm
    RightArm RightForeArm
    RightForeArm RightHand
    LeftShoulder1Dummy LeftShoulder1
    LeftShoulder1 LeftArm
    LeftArm LeftForeArm
    LeftForeArm LeftHand
    HEadDummy HEad
    RightUpLegDummy RightUpLeg
    RightUpLeg RightLeg
    RightLeg RightFoot
    RightFoot RightToes
  end

:SAMPLES-PER-SECOND 30
:FULLY-SPECIFIED
:DEGREES
1
root  -2.47928 33.7917 -7.44499 -1.11469 45.2293 -7.19456
LeftUpLeg  -8.32835 4.4554 16.9081
LeftLeg  10.1087 10.1938 1.14092
LeftFoot  9.31183 -0.134217 1.64791
LeftToes  -31.0128 2.48695e-006 -1.03773e-007
Spine  2.10786 0.615202 0.356637
Spine1  4.01116 1.23539 0.897521
RightShoulder  0.0367195 2.80842 6.7728
RightArm  -10.2757 -25.4595 72.6534
RightForeArm  37.326 73.2531 36.1842
RightHand  0.0644432 -7.02132 -0.679759
LeftShoulder1  0.0369493 1.22981 -10.9141
LeftArm  -19.7584 12.284 -64.3101
LeftForeArm  36.2795 -13.18 -2.3568
LeftHand  0.130659 3.54418 3.89059
HEad  18.2847 -12.3431 -0.891746
RightUpLeg  -8.01321 -10.0841 2.08927
RightLeg  14.8261 -1.94459 -0.382201
RightFoot  -0.786718 -0.00376702 0.0933762
RightToes  -31.2696 -0.152761 -0.260693
2
root  -2.98133 33.7462 -7.16168 -1.90546 44.6258 -8.6667
LeftUpLeg  -8.42669 4.66482 18.932
LeftLeg  9.62179 10.5871 1.09405
LeftFoot  10.3882 -0.173765 1.91135
LeftToes  -32.078 2.48695e-006 -1.03773e-007
Spine  2.21547 0.624324 0.578414
Spine1  4.22732 1.25672 1.31747
RightShoulder  0.0366861 2.85067 6.71536
RightArm  -8.66748 -24.8635 72.0429
RightForeArm  62.9651 78.825 64.3243
RightHand  0.136549 -6.51668 -2.02615
LeftShoulder1  0.0369493 1.14284 -10.7332
LeftArm  -20.0335 11.9177 -64.014
LeftForeArm  36.2536 -13.1926 -2.35915
LeftHand  0.132115 3.52878 3.98879
HEad  19.4761 -12.2391 -0.563623
RightUpLeg  -8.65856 -10.6134 4.18424
RightLeg  15.1004 -0.906788 -0.182544
RightFoot  -1.25291 -0.00320339 0.0846254
RightToes  -30.2057 -0.14534 -0.253393
3
root  -3.45528 33.6925 -6.87402 -2.75839 44.2809 -10.0873
LeftUpLeg  -8.65937 4.48093 20.8819
LeftLeg  9.53857 11.0653 1.12678
LeftFoot  11.2322 -0.212789 2.16368
LeftToes  -32.853 2.48695e-006 -1.03773e-007
Spine  2.4046 0.5617 0.85493
Spine1  4.60374 1.13237 1.84185
RightShoulder  0.0366658 2.89689 6.68892
RightArm  -7.12869 -23.5448 71.1952
RightForeArm  107.317 79.1142 111.841
RightHand  0.214104 -5.93994 -3.7508
LeftShoulder1  0.0369493 1.05774 -10.6893
LeftArm  -20.3554 11.5528 -63.915
LeftForeArm  36.0886 -13.3888 -2.39574
LeftHand  0.133432 3.50261 4.06871
HEad  20.6393 -12.2076 -0.42321
RightUpLeg  -9.06836 -12.133 6.13024
RightLeg  15.2683 0.936218 0.192375
RightFoot  -1.71241 -0.0051129 0.0354443
RightToes  -29.2863 -0.139038 -0.246975
4
root  -3.89426 33.6308 -6.62744 -3.51135 43.9916 -11.1286
LeftUpLeg  -9.07513 3.77133 22.4869
LeftLeg  10.2102 11.92 1.35287
LeftFoot  11.5952 -0.245516 2.41772
LeftToes  -33.0478 2.48695e-006 -1.03773e-007
Spine  2.69886 0.503283 1.11088
Spine1  5.18774 1.02062 2.31216
RightShoulder  0.0366084 2.94899 6.58069
RightArm  -5.77601 -21.1828 70.3849
RightForeArm  134.195 73.66 142.36
RightHand  0.283705 -5.28733 -5.76132
LeftShoulder1  0.0369493 0.866754 -10.6877
LeftArm  -20.6598 11.3302 -64.0684
LeftForeArm  35.4347 -13.8574 -2.48357
LeftHand  0.134818 3.42728 4.12428
HEad  21.6745 -12.1394 -0.520688
RightUpLeg  -9.45418 -14.2306 7.6841
RightLeg  15.7969 3.31252 0.710978
RightFoot  -2.38566 -0.00943621 -0.0756602
RightToes  -28.0317 -0.130605 -0.238056
5
root  -4.28288 33.579 -6.44916 -3.9984 43.5743 -11.7007
LeftUpLeg  -9.73968 2.51941 23.6225
LeftLeg  11.7449 13.3998 1.879
LeftFoot  11.4305 -0.270988 2.70716
LeftToes  -32.5244 2.48695e-006 -1.03773e-007
Spine  3.00383 0.527924 1.33178
Spine1  5.79997 1.08217 2.69532
RightShoulder  0.0364938 2.97199 6.32196
RightArm  -4.67746 -17.7666 69.8744
RightForeArm  144.364 66.2845 155.855
RightHand  0.343164 -4.64432 -8.06574
LeftShoulder1  0.0369493 0.692075 -10.6128
LeftArm  -20.8555 11.2229 -64.6677
LeftForeArm  34.5358 -14.3784 -2.58178
LeftHand  0.134771 3.42898 4.12187
HEad  22.5041 -12.0174 -0.839659
RightUpLeg  -9.68201 -15.6456 8.79671
RightLeg  16.1115 5.17879 1.14023
RightFoot  -2.87159 -0.0145055 -0.201218
RightToes  -27.0257 -0.123985 -0.230772
6
root  -4.60949 33.5677 -6.35669 -4.16448 43.0491 -11.7874
LeftUpLeg  -10.7038 1.10827 24.1498
LeftLeg  14.0067 15.1402 2.72261
LeftFoot  10.5918 -0.267017 2.87998
LeftToes  -29.4323 2.48695e-006 -1.03773e-007
Spine  3.24033 0.665523 1.51035
Spine1  6.28982 1.37626 2.98626
RightShoulder  0.0373916 2.65138 5.68166
RightArm  -4.16708 -13.1654 70.446
RightForeArm  147.902 59.3312 162.292
RightHand  0.355115 -4.1277 -9.44518
LeftShoulder1  0.0369493 0.622867 -10.3958
LeftArm  -21.3112 11.2104 -65.8454
LeftForeArm  33.5049 -14.7557 -2.65347
LeftHand  0.135784 3.4242 4.16191
HEad  23.396 -11.9466 -1.29256
RightUpLeg  -9.70642 -16.5095 9.42551
RightLeg  15.9558 6.60936 1.43526
RightFoot  -2.91698 -0.0168521 -0.284395
RightToes  -26.4714 -0.121063 -0.226709
7
root  -4.84578 33.6097 -6.34987 -3.83008 42.541 -11.1311
LeftUpLeg  -12.2993 0.120564 23.6758
LeftLeg  17.5249 16.5811 4.02055
LeftFoot  8.52268 -0.193639 2.59832
LeftToes  -20.3136 2.48695e-006 -1.03773e-007
Spine  3.44936 0.870326 1.57884
Spine1  6.72922 1.81384 3.0613
RightShoulder  0.039997 1.95851 5.09649
RightArm  -3.63374 -7.35591 71.614
RightForeArm  148.132 54.1793 165.481
RightHand  0.310991 -3.4626 -9.87267
LeftShoulder1  0.0316968 0.658383 -10.2873
LeftArm  -22.5781 11.2065 -67.4098
LeftForeArm  32.4229 -15.0668 -2.7129
LeftHand  0.147156 3.5726 4.33748
HEad  24.2051 -12.0827 -1.90164
RightUpLeg  -9.61462 -16.875 9.34285
RightLeg  15.5285 7.51035 1.57165
RightFoot  -2.62144 -0.0154116 -0.296094
RightToes  -25.8533 -0.118765 -0.222138
8
root  -4.97824 33.6922 -6.4321 -2.87573 42.1616 -9.61046
LeftUpLeg  -14.3915 -0.211161 21.9189
LeftLeg  21.6218 16.7733 5.3354
LeftFoot  6.84295 -0.129916 2.17271
LeftToes  -15.6986 2.48695e-006 -1.03773e-007
Spine  3.67078 1.13683 1.43959
Spine1  7.18725 2.39473 2.72153
RightShoulder  0.0434557 1.12232 4.94001
RightArm  -2.65151 -1.08423 72.754
RightForeArm  146.91 51.218 166.96
RightHand  0.288612 -3.19851 -9.91912
LeftShoulder1  0.0250015 0.761525 -10.1905
LeftArm  -23.9592 11.0598 -69.1358
LeftForeArm  31.2523 -15.3554 -2.76823
LeftHand  0.158278 3.68249 4.54207
HEad  25.2253 -12.566 -2.58044
RightUpLeg  -9.39814 -16.1462 8.41688
RightLeg  14.6803 7.29291 1.41461
RightFoot  -2.05404 -0.0106298 -0.215475
RightToes  -25.4125 -0.117052 -0.220451
9
root  -5.03209 33.7962 -6.55418 -1.80243 42.1234 -7.75507
LeftUpLeg  -16.7778 0.250951 19.2754
LeftLeg  25.4646 14.5339 5.72388
LeftFoot  7.26778 -0.130722 2.05812
LeftToes  -19.7011 2.48695e-006 -1.03773e-007
Spine  3.93983 1.47595 1.24938
Spine1  7.72492 3.15026 2.25705
RightShoulder  0.0469823 0.672738 4.58388
RightArm  -2.33512 4.20081 74.0123
RightForeArm  145.202 49.7925 167.606
RightHand  0.3377 -3.98304 -9.30328
LeftShoulder1  0.0191864 0.718364 -9.94029
LeftArm  -24.1639 10.8293 -71.0094
LeftForeArm  30.0323 -15.735 -2.84095
LeftHand  0.164493 3.81678 4.55549
HEad  26.6207 -13.437 -3.46595
RightUpLeg  -8.94868 -14.565 7.05841
RightLeg  13.5222 5.83724 1.01192
RightFoot  -1.23892 -0.00492406 -0.0779184
RightToes  -25.6336 -0.115886 -0.219976
10
root  -5.03086 33.9008 -6.68124 -0.503605 42.5668 -5.83158
LeftUpLeg  -19.442 0.796812 16.2599
LeftLeg  28.322 10.2911 4.68116
LeftFoot  6.93351 -0.0941138 1.43799
LeftToes  -19.0298 2.48695e-006 -1.03773e-007
Spine  4.19594 1.79352 1.07188
Spine1  8.22855 3.86358 1.82362
RightShoulder  0.0500747 0.607082 3.95625
RightArm  -2.83572 7.95896 75.2588
RightForeArm  144.27 49.1865 167.869
RightHand  0.332669 -4.91769 -7.35551
LeftShoulder1  0.0143183 0.57432 -9.61331
LeftArm  -22.442 10.7616 -72.7847
LeftForeArm  29.1438 -16.9013 -3.0644
LeftHand  0.169959 4.10922 4.35753
HEad  27.9786 -14.714 -4.32271
RightUpLeg  -8.69455 -13.2137 5.55945
RightLeg  12.5252 4.12936 0.643074
RightFoot  -0.593436 -0.0019142 0.00793418
RightToes  -25.4946 -0.115227 -0.22027
11
root  -4.99327 33.9655 -6.78115 0.50162 43.2946 -4.56781
LeftUpLeg  -22.0681 2.34489 13.5247
LeftLeg  29.6486 5.66244 2.74745
LeftFoot  6.92245 -0.0562789 0.831642
LeftToes  -19.4278 2.48695e-006 -1.03773e-007
Spine  4.42699 2.07332 1.11551
Spine1  8.70289 4.45406 1.87937
RightShoulder  0.0525307 0.542001 3.44555
RightArm  -3.26887 10.5209 75.7314
RightForeArm  144.449 48.9533 167.967
RightHand  0.307316 -5.29901 -6.25586
LeftShoulder1  0.0121171 0.339363 -9.37226
LeftArm  -19.1594 10.8957 -74.4045
LeftForeArm  28.5446 -18.7341 -3.42109
LeftHand  0.16128 4.1262 4.09795
HEad  29.0628 -16.3215 -5.16002
RightUpLeg  -8.57304 -12.8573 4.49856
RightLeg  11.7344 3.11595 0.44183
RightFoot  -0.154416 -0.000450651 0.0433211
RightToes  -25.6858 -0.115037 -0.220892
12
root  -4.95307 33.9819 -6.85626 1.06354 44.348 -3.90314
LeftUpLeg  -23.9965 3.11684 11.3812
LeftLeg  28.4109 2.10274 0.964654
LeftFoot  8.42168 -0.0311905 0.423626
LeftToes  -21.7246 2.48695e-006 -1.03773e-007
Spine  4.65268 2.31115 1.35281
Spine1  9.17323 4.95021 2.3159
RightShoulder  0.0571227 0.554135 3.2581
RightArm  -3.7394 11.8292 75.3915
RightForeArm  144.328 48.9572 167.966
RightHand  0.321358 -5.3901 -6.44106
LeftShoulder1  0.0109834 -0.0405798 -9.16713
LeftArm  -15.8048 11.0799 -75.78
LeftForeArm  28.4689 -20.3474 -3.74157
LeftHand  0.267481 5.07191 5.6561
HEad  30.1554 -18.0378 -5.79419
RightUpLeg  -8.62687 -13.1709 3.87606
RightLeg  11.5419 2.42811 0.336304
RightFoot  -0.122377 0.000337269 0.0511384
RightToes  -25.8991 -0.115277 -0.222478
13
root  -4.90207 33.9708 -6.88994 1.30366 45.6444 -3.5377
LeftUpLeg  -24.8621 2.42562 9.9002
LeftLeg  24.3474 0.623796 0.232351
LeftFoot  10.372 -0.0198483 0.218679
LeftToes  -22.9426 2.48695e-006 -1.03773e-007
Spine  4.93898 2.44697 1.65707
Spine1  9.76509 5.25181 2.85325
RightShoulder  0.0646337 0.709162 3.45507
RightArm  -4.32991 12.0724 74.7775
RightForeArm  142.539 49.0579 167.928
RightHand  0.359386 -5.23359 -7.4718
LeftShoulder1  0.0105154 -0.178565 -9.08812
LeftArm  -14.7343 10.6277 -76.4158
LeftForeArm  27.8662 -20.5592 -3.78441
LeftHand  0.312699 5.19298 6.50858
HEad  30.7382 -19.4138 -5.81164
RightUpLeg  -8.61198 -13.2654 3.45799
RightLeg  11.6705 1.27974 0.180752
RightFoot  -0.393087 0.000897623 0.0547803
RightToes  -26.0076 -0.115908 -0.223786
14
root  -4.85203 33.934 -6.85653 1.10393 46.8264 -4.06274
LeftUpLeg  -25.2159 1.71501 9.45296
LeftLeg  18.654 1.00989 0.267863
LeftFoot  11.4981 -0.0308176 0.306092
LeftToes  -22.4919 2.48695e-006 -1.03773e-007
Spine  5.12373 2.43527 2.17318
Spine1  10.1929 5.20211 3.84621
RightShoulder  0.0676922 0.810817 3.53471
RightArm  -4.91216 11.6135 74.9047
RightForeArm  141.223 48.8756 168.009
RightHand  0.372326 -5.26026 -7.71217
LeftShoulder1  0.0103113 -0.128114 -9.19242
LeftArm  -14.2595 10.3875 -76.4314
LeftForeArm  28.5465 -20.9063 -3.85414
LeftHand  0.180326 4.20833 4.52762
HEad  30.9257 -20.2611 -5.44891
RightUpLeg  -8.51776 -12.9901 3.7769
RightLeg  11.3754 -0.131102 -0.0164531
RightFoot  -0.511189 0.000437361 0.0660279
RightToes  -26.4331 -0.116893 -0.224798
